<?xml version="1.0" encoding="utf-8"?>
<!-- Generator: Adobe Illustrator 27.5.0, SVG Export Plug-In . SVG Version: 6.00 Build 0)  -->
<svg version="1.1" xmlns="http://www.w3.org/2000/svg" xmlns:xlink="http://www.w3.org/1999/xlink" x="0px" y="0px"
	 viewBox="0 0 500 500" style="enable-background:new 0 0 500 500;" xml:space="preserve">
<g id="Background_Simple">
	<g>
		<path style="fill:#92E3A9;" d="M457.96,136.016c-3.408-8.165-7.454-15.973-12.258-23.288C422.303,77.092,385.494,52.285,345,40
			c-89-27-197.544-9.659-233,27S57,235,45,283S15,401,59,440s108,26,141,11s97-43,155-45s121-81,121-141.002
			C476,222.072,474.738,176.216,457.96,136.016z"/>
		<path style="opacity:0.7;fill:#FFFFFF;" d="M457.96,136.016c-3.408-8.165-7.454-15.973-12.258-23.288
			C422.303,77.092,385.494,52.285,345,40c-89-27-197.544-9.659-233,27S57,235,45,283S15,401,59,440s108,26,141,11s97-43,155-45
			s121-81,121-141.002C476,222.072,474.738,176.216,457.96,136.016z"/>
	</g>
</g>
<g id="Onomatopoeia_2">
	<g>
		<line style="fill:none;stroke:#B2B2B2;stroke-width:7;stroke-miterlimit:10;" x1="34" y1="251" x2="483" y2="251"/>
		<line style="fill:none;stroke:#B2B2B2;stroke-width:7;stroke-miterlimit:10;" x1="34" y1="99" x2="483" y2="99"/>
		<line style="fill:none;stroke:#B2B2B2;stroke-width:7;stroke-miterlimit:10;" x1="433" y1="253" x2="433" y2="41"/>
		<line style="fill:none;stroke:#B2B2B2;stroke-width:7;stroke-miterlimit:10;" x1="305" y1="253" x2="305" y2="41"/>
		<line style="fill:none;stroke:#B2B2B2;stroke-width:7;stroke-miterlimit:10;" x1="177" y1="253" x2="177" y2="41"/>
		<line style="fill:none;stroke:#B2B2B2;stroke-width:7;stroke-miterlimit:10;" x1="49" y1="253" x2="49" y2="41"/>
		<g>
			
				<line style="fill:none;stroke:#B2B2B2;stroke-linecap:round;stroke-linejoin:round;stroke-miterlimit:10;" x1="447.581" y1="141.419" x2="444" y2="145"/>
			
				<line style="fill:none;stroke:#B2B2B2;stroke-linecap:round;stroke-linejoin:round;stroke-miterlimit:10;" x1="472" y1="117" x2="450.506" y2="138.494"/>
			
				<line style="fill:none;stroke:#B2B2B2;stroke-linecap:round;stroke-linejoin:round;stroke-miterlimit:10;" x1="475.9" y1="125.288" x2="460.5" y2="140.688"/>
		</g>
		<g>
			
				<line style="fill:none;stroke:#B2B2B2;stroke-linecap:round;stroke-linejoin:round;stroke-miterlimit:10;" x1="342.764" y1="68.779" x2="339.183" y2="72.36"/>
			
				<line style="fill:none;stroke:#B2B2B2;stroke-linecap:round;stroke-linejoin:round;stroke-miterlimit:10;" x1="367.183" y1="44.36" x2="345.689" y2="65.853"/>
			
				<line style="fill:none;stroke:#B2B2B2;stroke-linecap:round;stroke-linejoin:round;stroke-miterlimit:10;" x1="371.083" y1="52.647" x2="355.684" y2="68.047"/>
		</g>
		<g>
			
				<line style="fill:none;stroke:#B2B2B2;stroke-linecap:round;stroke-linejoin:round;stroke-miterlimit:10;" x1="107.764" y1="68.779" x2="104.183" y2="72.36"/>
			
				<line style="fill:none;stroke:#B2B2B2;stroke-linecap:round;stroke-linejoin:round;stroke-miterlimit:10;" x1="132.183" y1="44.36" x2="110.689" y2="65.853"/>
			
				<line style="fill:none;stroke:#B2B2B2;stroke-linecap:round;stroke-linejoin:round;stroke-miterlimit:10;" x1="136.083" y1="52.647" x2="120.684" y2="68.047"/>
		</g>
		<g>
			
				<line style="fill:none;stroke:#B2B2B2;stroke-linecap:round;stroke-linejoin:round;stroke-miterlimit:10;" x1="266.711" y1="144.344" x2="263.13" y2="147.925"/>
			
				<line style="fill:none;stroke:#B2B2B2;stroke-linecap:round;stroke-linejoin:round;stroke-miterlimit:10;" x1="291.13" y1="119.925" x2="269.637" y2="141.419"/>
			
				<line style="fill:none;stroke:#B2B2B2;stroke-linecap:round;stroke-linejoin:round;stroke-miterlimit:10;" x1="295.03" y1="128.213" x2="279.631" y2="143.613"/>
		</g>
		<g>
			
				<line style="fill:none;stroke:#B2B2B2;stroke-linecap:round;stroke-linejoin:round;stroke-miterlimit:10;" x1="74.246" y1="186.267" x2="64.161" y2="196.353"/>
			
				<line style="fill:none;stroke:#B2B2B2;stroke-linecap:round;stroke-linejoin:round;stroke-miterlimit:10;" x1="143.016" y1="117.497" x2="82.484" y2="178.029"/>
			
				<line style="fill:none;stroke:#B2B2B2;stroke-linecap:round;stroke-linejoin:round;stroke-miterlimit:10;" x1="154" y1="140.838" x2="110.63" y2="184.208"/>
		</g>
	</g>
</g>
<g id="Plants">
	<g>
		<path style="fill:none;stroke:#263238;stroke-width:2;stroke-linecap:round;stroke-linejoin:round;stroke-miterlimit:10;" d="
			M449.35,273.438c0,0-14.776-8.209-15.871,10.398c-1.094,18.607-3.831,139.552-3.831,139.552"/>
		<path style="fill:none;stroke:#263238;stroke-width:2;stroke-linecap:round;stroke-linejoin:round;stroke-miterlimit:10;" d="
			M425.805,285.476c0,0,12.052,26.818,6.58,136.271"/>
		<g>
			<path style="fill:#92E3A9;" d="M437.646,277.184c0,0-5.652,3.622-8.868-0.523c-3.216-4.145,2.175-11.737-2.577-14.984
				c-4.753-3.247-12.955,1.708-12.955,1.708s6.318,1.856,6.114,5.305c-0.203,3.449-3.247,4.752-3.652,3.245
				c-0.405-1.507-3.418-9.101-8.549-5.943c-5.13,3.158-5.914,8.056-5.914,8.056s11.941-1.273,12.665,3.219
				c0.724,4.492-4.898-0.783-9.825-1.074c-4.927-0.291-9.419,0.433-9.101,3.418s-0.465,7.883-0.465,7.883s4.174-3.709,9.594-3.389
				c5.419,0.32,5.216,3.768,0.289,3.478c-4.927-0.291-9.159,4.404-9.159,4.404s4.491,7.681,10.2,11.478
				c5.709,3.798,7.766,2.436,8.434-0.491c0.667-2.927-0.868-10.434,2.581-10.23c3.449,0.204-5.712,13.012-1.307,13.766
				c4.405,0.754,7.941-0.52,9.101-3.418c1.16-2.898,1.16-2.898,1.16-2.898s-1.535-7.506-0.868-10.433
				c0.667-2.927,1.478,0.087,2.26,3.594c0.782,3.507,1.273,11.941,2.78,11.535c1.507-0.406,6.319-6.549,7.45-8.954
				c1.131-2.405-6.345-9.768-6.258-11.246c0.087-1.478,5.854,1.334,6.752,2.87c0.898,1.536,1.767,3.565,1.767,3.565
				s3.594-2.26,3.508-9.187C442.718,275.011,437.646,277.184,437.646,277.184z"/>
			<path style="opacity:0.3;fill:#263238;" d="M437.646,277.184c0,0-5.652,3.622-8.868-0.523
				c-3.216-4.145,2.175-11.737-2.577-14.984c-4.753-3.247-12.955,1.708-12.955,1.708s6.318,1.856,6.114,5.305
				c-0.203,3.449-3.247,4.752-3.652,3.245c-0.405-1.507-3.418-9.101-8.549-5.943c-5.13,3.158-5.914,8.056-5.914,8.056
				s11.941-1.273,12.665,3.219c0.724,4.492-4.898-0.783-9.825-1.074c-4.927-0.291-9.419,0.433-9.101,3.418s-0.465,7.883-0.465,7.883
				s4.174-3.709,9.594-3.389c5.419,0.32,5.216,3.768,0.289,3.478c-4.927-0.291-9.159,4.404-9.159,4.404s4.491,7.681,10.2,11.478
				c5.709,3.798,7.766,2.436,8.434-0.491c0.667-2.927-0.868-10.434,2.581-10.23c3.449,0.204-5.712,13.012-1.307,13.766
				c4.405,0.754,7.941-0.52,9.101-3.418c1.16-2.898,1.16-2.898,1.16-2.898s-1.535-7.506-0.868-10.433
				c0.667-2.927,1.478,0.087,2.26,3.594c0.782,3.507,1.273,11.941,2.78,11.535c1.507-0.406,6.319-6.549,7.45-8.954
				c1.131-2.405-6.345-9.768-6.258-11.246c0.087-1.478,5.854,1.334,6.752,2.87c0.898,1.536,1.767,3.565,1.767,3.565
				s3.594-2.26,3.508-9.187C442.718,275.011,437.646,277.184,437.646,277.184z"/>
			<path style="fill:none;stroke:#263238;stroke-linecap:round;stroke-linejoin:round;stroke-miterlimit:10;" d="M408.992,293.425
				c3.686-4.557,9.118-10.722,13.67-13.665"/>
			<path style="fill:none;stroke:#263238;stroke-linecap:round;stroke-linejoin:round;stroke-miterlimit:10;" d="M404.719,298.972
				c0,0,0.946-1.316,2.48-3.287"/>
			<path style="fill:none;stroke:#263238;stroke-linecap:round;stroke-linejoin:round;stroke-miterlimit:10;" d="M425.067,280.891
				c0,0,5.476,7.739,6.489,15.709"/>
			<path style="fill:none;stroke:#263238;stroke-linecap:round;stroke-linejoin:round;stroke-miterlimit:10;" d="M418.864,285.469
				c0,0,1.536-0.898,0.955,8.956"/>
			<path style="fill:none;stroke:#263238;stroke-linecap:round;stroke-linejoin:round;stroke-miterlimit:10;" d="M422.865,276.311
				c0,0,3.13-2.782,1.479-8.318"/>
			
				<line style="fill:none;stroke:#263238;stroke-linecap:round;stroke-linejoin:round;stroke-miterlimit:10;" x1="418.633" y1="281.006" x2="416.402" y2="276.919"/>
			<path style="fill:none;stroke:#263238;stroke-linecap:round;stroke-linejoin:round;stroke-miterlimit:10;" d="M413.938,285.178
				c0,0-7.1-5.363-11.534-5.624"/>
		</g>
		<g>
			<path style="fill:#92E3A9;" d="M457.791,262.581c0,0-0.226,8.127-6.569,8.522c-6.342,0.395-10.268-10.179-16.758-7.634
				c-6.49,2.545-7.121,14.135-7.121,14.135s6.164-5.06,9.479-2.506c3.314,2.555,2.545,6.49,0.76,5.869
				c-1.785-0.621-11.442-2.781-11.777,4.508c-0.335,7.289,4.035,11.412,4.035,11.412s6.864-12.823,11.855-10.485
				c4.991,2.337-4.123,4.37-7.772,9.104c-3.649,4.735-5.987,9.726-2.781,11.442c3.206,1.716,7.576,5.839,7.576,5.839
				s-0.868-6.707,3.146-11.915c4.014-5.208,7.328-2.654,3.679,2.081c-3.649,4.735-1.834,12.172-1.834,12.172
				s10.751,0.739,18.444-2.388c7.693-3.127,7.733-6.116,5.257-8.779c-2.476-2.663-11.037-6.243-8.483-9.557
				c2.555-3.314,9.134,14.588,12.892,10.691c3.758-3.896,4.892-8.305,2.781-11.442c-2.111-3.137-2.111-3.137-2.111-3.137
				s-8.562-3.58-11.038-6.243c-2.476-2.663,1.095-1.42,5.139,0.187c4.044,1.608,12.823,6.864,13.444,5.079
				c0.621-1.785-2.249-10.79-3.887-13.562c-1.638-2.771-14.105-0.305-15.525-1.4c-1.42-1.095,5.326-4.952,7.476-4.804
				c2.15,0.148,4.774,0.66,4.774,0.66s0.187-5.139-6.806-9.774C459.073,256.022,457.791,262.581,457.791,262.581z"/>
			<path style="opacity:0.2;fill:#263238;" d="M457.791,262.581c0,0-0.226,8.127-6.569,8.522
				c-6.342,0.395-10.268-10.179-16.758-7.634c-6.49,2.545-7.121,14.135-7.121,14.135s6.164-5.06,9.479-2.506
				c3.314,2.555,2.545,6.49,0.76,5.869c-1.785-0.621-11.442-2.781-11.777,4.508c-0.335,7.289,4.035,11.412,4.035,11.412
				s6.864-12.823,11.855-10.485c4.991,2.337-4.123,4.37-7.772,9.104c-3.649,4.735-5.987,9.726-2.781,11.442
				c3.206,1.716,7.576,5.839,7.576,5.839s-0.868-6.707,3.146-11.915c4.014-5.208,7.328-2.654,3.679,2.081
				c-3.649,4.735-1.834,12.172-1.834,12.172s10.751,0.739,18.444-2.388c7.693-3.127,7.733-6.116,5.257-8.779
				c-2.476-2.663-11.037-6.243-8.483-9.557c2.555-3.314,9.134,14.588,12.892,10.691c3.758-3.896,4.892-8.305,2.781-11.442
				c-2.111-3.137-2.111-3.137-2.111-3.137s-8.562-3.58-11.038-6.243c-2.476-2.663,1.095-1.42,5.139,0.187
				c4.044,1.608,12.823,6.864,13.444,5.079c0.621-1.785-2.249-10.79-3.887-13.562c-1.638-2.771-14.105-0.305-15.525-1.4
				c-1.42-1.095,5.326-4.952,7.476-4.804c2.15,0.148,4.774,0.66,4.774,0.66s0.187-5.139-6.806-9.774
				C459.073,256.022,457.791,262.581,457.791,262.581z"/>
			<path style="fill:none;stroke:#263238;stroke-linecap:round;stroke-linejoin:round;stroke-miterlimit:10;" d="M454.521,302.341
				c-2.05-6.796-4.52-16.437-4.363-23.001"/>
			<path style="fill:none;stroke:#263238;stroke-linecap:round;stroke-linejoin:round;stroke-miterlimit:10;" d="M457.163,310.399
				c0,0-0.672-1.845-1.601-4.724"/>
			<path style="fill:none;stroke:#263238;stroke-linecap:round;stroke-linejoin:round;stroke-miterlimit:10;" d="M452.929,277.702
				c0,0,11.481-0.208,20.151,4.21"/>
			<path style="fill:none;stroke:#263238;stroke-linecap:round;stroke-linejoin:round;stroke-miterlimit:10;" d="M453.285,287.033
				c0,0,0.148-2.15,9.617,5.148"/>
			<path style="fill:none;stroke:#263238;stroke-linecap:round;stroke-linejoin:round;stroke-miterlimit:10;" d="M446.844,276.785
				c0,0-0.651-5.03-7.319-7.151"/>
			
				<line style="fill:none;stroke:#263238;stroke-linecap:round;stroke-linejoin:round;stroke-miterlimit:10;" x1="448.659" y1="284.222" x2="443.047" y2="283.67"/>
			<path style="fill:none;stroke:#263238;stroke-linecap:round;stroke-linejoin:round;stroke-miterlimit:10;" d="M449.636,291.768
				c0,0-10.208,3.453-13.493,7.714"/>
		</g>
		<path style="fill:none;stroke:#263238;stroke-width:2;stroke-linecap:round;stroke-linejoin:round;stroke-miterlimit:10;" d="
			M389.698,316.672c0,0,32.288,21.343,31.741,103.98"/>
		<g>
			<path style="fill:#92E3A9;" d="M429.509,311.034c0,0-1.028,9.357-8.384,9.214c-7.356-0.143-10.888-12.715-18.617-10.39
				c-7.729,2.324-9.551,15.638-9.551,15.638s7.591-5.257,11.174-1.997c3.583,3.26,2.324,7.729,0.323,6.844
				c-2.001-0.885-12.94-4.289-14.015,4.091c-1.074,8.379,3.579,13.549,3.579,13.549s9.131-14.149,14.67-10.981
				c5.539,3.168-5.17,4.653-9.828,9.772c-4.658,5.119-7.826,10.658-4.289,12.94c3.537,2.283,8.19,7.453,8.19,7.453
				s-0.369-7.821,4.755-13.452c5.124-5.631,8.707-2.37,4.049,2.749c-4.658,5.119-3.265,13.872-3.265,13.872
				s12.336,1.868,21.509-1.015c9.173-2.882,9.5-6.327,6.894-9.634c-2.605-3.306-12.147-8.246-8.887-11.829
				c3.261-3.583,9.164,17.695,13.868,13.554c4.704-4.141,6.429-9.122,4.289-12.94c-2.14-3.819-2.14-3.819-2.14-3.819
				s-9.542-4.939-12.147-8.246c-2.605-3.306,1.397-1.536,5.912,0.701c4.515,2.237,14.149,9.131,15.034,7.13
				c0.885-2.002-1.577-12.664-3.205-16.016c-1.628-3.353-16.247-1.683-17.783-3.081c-1.536-1.397,6.613-5.211,9.08-4.838
				c2.467,0.374,5.446,1.213,5.446,1.213s0.701-5.912-6.931-11.921C431.607,303.586,429.509,311.034,429.509,311.034z"/>
			<path style="opacity:0.3;fill:#263238;" d="M429.509,311.034c0,0-1.028,9.357-8.384,9.214
				c-7.356-0.143-10.888-12.715-18.617-10.39c-7.729,2.324-9.551,15.638-9.551,15.638s7.591-5.257,11.174-1.997
				c3.583,3.26,2.324,7.729,0.323,6.844c-2.001-0.885-12.94-4.289-14.015,4.091c-1.074,8.379,3.579,13.549,3.579,13.549
				s9.131-14.149,14.67-10.981c5.539,3.168-5.17,4.653-9.828,9.772c-4.658,5.119-7.826,10.658-4.289,12.94
				c3.537,2.283,8.19,7.453,8.19,7.453s-0.369-7.821,4.755-13.452c5.124-5.631,8.707-2.37,4.049,2.749
				c-4.658,5.119-3.265,13.872-3.265,13.872s12.336,1.868,21.509-1.015c9.173-2.882,9.5-6.327,6.894-9.634
				c-2.605-3.306-12.147-8.246-8.887-11.829c3.261-3.583,9.164,17.695,13.868,13.554c4.704-4.141,6.429-9.122,4.289-12.94
				c-2.14-3.819-2.14-3.819-2.14-3.819s-9.542-4.939-12.147-8.246c-2.605-3.306,1.397-1.536,5.912,0.701
				c4.515,2.237,14.149,9.131,15.034,7.13c0.885-2.002-1.577-12.664-3.205-16.016c-1.628-3.353-16.247-1.683-17.783-3.081
				c-1.536-1.397,6.613-5.211,9.08-4.838c2.467,0.374,5.446,1.213,5.446,1.213s0.701-5.912-6.931-11.921
				C431.607,303.586,429.509,311.034,429.509,311.034z"/>
			<path style="fill:none;stroke:#263238;stroke-linecap:round;stroke-linejoin:round;stroke-miterlimit:10;" d="M421.983,356.604
				c-1.724-8.035-3.665-19.394-2.864-26.953"/>
			<path style="fill:none;stroke:#263238;stroke-linecap:round;stroke-linejoin:round;stroke-miterlimit:10;" d="M424.27,366.153
				c0,0-0.602-2.192-1.401-5.602"/>
			<path style="fill:none;stroke:#263238;stroke-linecap:round;stroke-linejoin:round;stroke-miterlimit:10;" d="M422.472,328.023
				c0,0,13.268,0.844,22.855,6.761"/>
			<path style="fill:none;stroke:#263238;stroke-linecap:round;stroke-linejoin:round;stroke-miterlimit:10;" d="M422.001,338.824
				c0,0,0.373-2.467,10.612,6.848"/>
			<path style="fill:none;stroke:#263238;stroke-linecap:round;stroke-linejoin:round;stroke-miterlimit:10;" d="M415.536,326.391
				c0,0-0.277-5.866-7.771-8.942"/>
			
				<line style="fill:none;stroke:#263238;stroke-linecap:round;stroke-linejoin:round;stroke-miterlimit:10;" x1="416.928" y1="335.144" x2="410.504" y2="333.977"/>
			<path style="fill:none;stroke:#263238;stroke-linecap:round;stroke-linejoin:round;stroke-miterlimit:10;" d="M417.343,343.943
				c0,0-12.106,3.021-16.298,7.628"/>
		</g>
		<path style="fill:none;stroke:#263238;stroke-width:2;stroke-linecap:round;stroke-linejoin:round;stroke-miterlimit:10;" d="
			M402.285,381.796c0,0,20.796,15.871,22.985,39.403l-4.378-78.806"/>
		<path style="fill:none;stroke:#263238;stroke-width:2;stroke-linecap:round;stroke-linejoin:round;stroke-miterlimit:10;" d="
			M452.634,370.304c-27.363-4.925-27.363,50.895-27.363,50.895"/>
		<path style="fill:none;stroke:#263238;stroke-width:2;stroke-linecap:round;stroke-linejoin:round;stroke-miterlimit:10;" d="
			M428.554,420.652c0,0-15.87-115.472,30.1-115.472"/>
		<g>
			<path style="fill:#92E3A9;" d="M442.207,366.984c-3.738-4.205-11.68-4.205-16.352,6.541c-4.672,10.746-0.467,8.877-0.467,8.877
				s8.877-2.803,14.484-4.672c5.607-1.869,13.082-6.541,13.549-3.737c0.467,2.803-3.738,5.606-8.877,6.541
				c-5.139,0.935-18.689,4.672-17.287,7.475c1.402,2.803,4.672,11.213,4.672,11.213s6.541-5.607,12.615-9.344
				c6.074-3.738,9.811-2.336,6.541,1.869c-3.27,4.205-12.615,8.877-10.746,14.484c1.869,5.607,13.082,12.615,13.082,12.615
				s1.402-11.68,4.672-15.418c3.271-3.738,3.271,0.467,2.336,7.008c-0.934,6.541-0.934,8.41-0.934,8.41l13.082,4.672
				c0,0,4.672-7.008,7.008-9.344c2.336-2.336,2.336-2.336,2.336-2.336s-10.279-8.877-10.746-14.484
				c-0.467-5.607,7.008,0,9.344,0.934c2.336,0.935,6.074,7.475,6.074,7.475s2.336-10.746,2.803-14.484
				c0.467-3.738,0.467-3.738,0.467-3.738s-9.812-3.738-13.549-3.738s-5.606,2.803-5.606-0.934s3.738-6.074,7.943-5.607
				c4.205,0.467,11.213,2.803,11.213,2.803s2.803-2.336,1.869-9.344c-0.934-7.008-3.271-7.008-8.877-5.139
				c-5.607,1.869-9.344,6.074-13.549,6.074s-1.869-5.139,0.934-6.541c2.803-1.402,9.811-4.205,11.213-4.672
				c1.402-0.467-7.475-7.008-12.148-7.943c-4.672-0.935-10.722,2.357-10.279,7.008C459.961,369.32,445.945,371.189,442.207,366.984z
				"/>
			<path style="fill:none;stroke:#263238;stroke-linecap:round;stroke-linejoin:round;stroke-miterlimit:10;" d="M472.283,415.09
				c0.139,1.407,0.239,2.816,0.293,4.222"/>
			<path style="fill:none;stroke:#263238;stroke-linecap:round;stroke-linejoin:round;stroke-miterlimit:10;" d="M462.897,381.55
				c3.281,7.583,7.076,18.039,8.794,28.951"/>
			<path style="fill:none;stroke:#263238;stroke-linecap:round;stroke-linejoin:round;stroke-miterlimit:10;" d="M461.214,377.799
				c-2.315-4.977-4.056-8.011-4.056-8.011s4.205-1.869,6.074-5.607s4.672-5.607,4.672-5.607"/>
			<path style="fill:none;stroke:#263238;stroke-linecap:round;stroke-linejoin:round;stroke-miterlimit:10;" d="M440.805,385.673
				c0,0,16.82-7.008,16.82-5.607"/>
			<path style="fill:none;stroke:#263238;stroke-linecap:round;stroke-linejoin:round;stroke-miterlimit:10;" d="M466.969,376.796
				c0,0,7.475-3.737,14.016-3.737"/>
			<path style="fill:none;stroke:#263238;stroke-linecap:round;stroke-linejoin:round;stroke-miterlimit:10;" d="M464.166,388.009
				c0,0-4.205,3.271-8.877,8.877c-4.672,5.607-6.541,10.746-6.541,10.746"/>
			<path style="fill:none;stroke:#263238;stroke-linecap:round;stroke-linejoin:round;stroke-miterlimit:10;" d="M469.305,389.878
				c0,0,9.811-2.803,14.951,1.869"/>
		</g>
		<g>
			<path style="fill:#92E3A9;" d="M487.078,326.748c-5.087-3.009-10.712-3.074-13.469-6.25c-2.757-3.175,2.656-4.78,5.552-3.582
				c2.896,1.198,9.607,4.652,10.879,5.405c1.272,0.752,0.391-10.239-1.966-14.38c-2.357-4.141-8.809-6.551-12.031-3.167
				c-6.796,7.138-17.396-2.222-16.671-7.801c0.725-5.579-4.482-11.577-15.659-8.06c-11.178,3.517-7.01,5.467-7.01,5.467
				s7.936,4.866,13.023,7.874c5.087,3.009,13.516,5.591,11.705,7.781c-1.81,2.19-6.684,0.853-10.759-2.415
				c-4.075-3.268-15.78-11.049-16.978-8.153s-5.405,10.879-5.405,10.879s8.522,1.264,15.326,3.4
				c6.804,2.136,8.196,5.878,2.877,6.165c-5.319,0.287-14.973-3.706-17.982,1.38c-3.009,5.086-0.95,18.148-0.95,18.148
				s9.739-6.599,14.706-6.58c4.966,0.019,1.791,2.776-3.761,6.358c-5.552,3.582-6.963,4.808-6.963,4.808l5.048,12.941
				c0,0,8.355-1.066,11.651-0.834c3.295,0.233,3.295,0.233,3.295,0.233s-0.035-13.581,3.892-17.609
				c3.927-4.028,4.594,5.292,5.42,7.669c0.826,2.377-1.663,9.487-1.663,9.487s9.646-5.281,12.775-7.378
				c3.129-2.098,3.129-2.098,3.129-2.098s-3.61-9.859-6.06-12.682s-5.792-2.396-2.97-4.846c2.822-2.45,7.037-1.159,9.441,2.322
				c2.404,3.482,5.234,10.305,5.234,10.305s3.602,0.586,8.281-4.714C493.696,331.52,492.164,329.756,487.078,326.748z
				 M442.862,341.703c-3.738-1.869,5.139-5.607,5.139-5.607C451.272,335.629,446.6,343.571,442.862,341.703z M449.156,324.26
				c-1.593-0.797,3.187-2.39,3.187-2.39C459.247,323.198,450.749,325.056,449.156,324.26z"/>
			<path style="fill:none;stroke:#263238;stroke-linecap:round;stroke-linejoin:round;stroke-miterlimit:10;" d="M442.763,351.22
				c-0.971,1.028-1.97,2.027-2.996,2.989"/>
			<path style="fill:none;stroke:#263238;stroke-linecap:round;stroke-linejoin:round;stroke-miterlimit:10;" d="M461.937,322.145
				c-3.576,7.449-8.983,17.169-16.097,25.621"/>
			<path style="fill:none;stroke:#263238;stroke-linecap:round;stroke-linejoin:round;stroke-miterlimit:10;" d="M463.666,318.415
				c2.241-5.011,3.391-8.315,3.391-8.315s4.168,1.95,8.216,0.911c4.048-1.039,7.297-0.147,7.297-0.147"/>
			<path style="fill:none;stroke:#263238;stroke-linecap:round;stroke-linejoin:round;stroke-miterlimit:10;" d="M459.601,317.191
				c1.059-0.919-15.26-9.026-15.26-9.026"/>
			<path style="fill:none;stroke:#263238;stroke-linecap:round;stroke-linejoin:round;stroke-miterlimit:10;" d="M468.197,322.103
				c0,0,7.723,3.195,12.011,8.134"/>
			<path style="fill:none;stroke:#263238;stroke-linecap:round;stroke-linejoin:round;stroke-miterlimit:10;" d="M457.891,327.337
				c0,0-5.226-1.031-12.523-0.884c-7.297,0.147-12.403,2.105-12.403,2.105"/>
			<path style="fill:none;stroke:#263238;stroke-linecap:round;stroke-linejoin:round;stroke-miterlimit:10;" d="M459.849,332.443
				c0,0,8.549,5.571,8.39,12.515"/>
		</g>
		<g>
			<path style="fill:#92E3A9;" d="M414.478,391.486c-4.094-2.421-8.621-2.474-10.839-5.03c-2.218-2.555,2.137-3.847,4.468-2.883
				c2.331,0.964,7.732,3.744,8.755,4.349c1.023,0.605,0.315-8.24-1.582-11.572c-1.897-3.332-7.089-5.272-9.681-2.549
				c-5.47,5.744-14-1.788-13.416-6.277c0.584-4.49-3.607-9.316-12.602-6.487c-8.995,2.83-5.641,4.399-5.641,4.399
				s6.387,3.916,10.48,6.337c4.093,2.421,10.876,4.499,9.419,6.262c-1.457,1.763-5.379,0.687-8.658-1.944
				c-3.279-2.63-12.699-8.892-13.663-6.561c-0.964,2.331-4.349,8.755-4.349,8.755s6.858,1.017,12.334,2.736
				c5.476,1.719,6.596,4.73,2.315,4.961c-4.281,0.231-12.05-2.983-14.471,1.111c-2.421,4.094-0.764,14.605-0.764,14.605
				s7.837-5.31,11.834-5.295c3.997,0.015,1.441,2.234-3.026,5.117c-4.468,2.883-5.604,3.869-5.604,3.869l4.062,10.415
				c0,0,6.724-0.858,9.376-0.671c2.652,0.187,2.652,0.187,2.652,0.187s-0.028-10.93,3.132-14.171
				c3.161-3.242,3.697,4.259,4.362,6.171c0.665,1.913-1.339,7.635-1.339,7.635s7.763-4.25,10.28-5.938
				c2.518-1.688,2.518-1.688,2.518-1.688s-2.905-7.934-4.877-10.206c-1.972-2.271-4.661-1.928-2.39-3.9
				c2.271-1.972,5.663-0.933,7.597,1.869c1.935,2.802,4.212,8.293,4.212,8.293s2.898,0.471,6.664-3.794
				C419.804,395.327,418.571,393.907,414.478,391.486z M378.895,403.521c-3.008-1.504,4.136-4.512,4.136-4.512
				C385.663,398.633,381.903,405.025,378.895,403.521z M383.96,389.484c-1.282-0.641,2.564-1.923,2.564-1.923
				C392.081,388.629,385.243,390.125,383.96,389.484z"/>
			<path style="fill:none;stroke:#263238;stroke-linecap:round;stroke-linejoin:round;stroke-miterlimit:10;" d="M378.815,411.18
				c-0.781,0.827-1.585,1.631-2.411,2.405"/>
			<path style="fill:none;stroke:#263238;stroke-linecap:round;stroke-linejoin:round;stroke-miterlimit:10;" d="M394.246,387.782
				c-2.877,5.994-7.229,13.817-12.954,20.618"/>
			<path style="fill:none;stroke:#263238;stroke-linecap:round;stroke-linejoin:round;stroke-miterlimit:10;" d="M395.637,384.781
				c1.804-4.033,2.729-6.692,2.729-6.692s3.354,1.569,6.611,0.733c3.257-0.836,5.872-0.119,5.872-0.119"/>
			<path style="fill:none;stroke:#263238;stroke-linecap:round;stroke-linejoin:round;stroke-miterlimit:10;" d="M380.085,376.532
				c0,0,13.132,6.524,12.281,7.263"/>
			<path style="fill:none;stroke:#263238;stroke-linecap:round;stroke-linejoin:round;stroke-miterlimit:10;" d="M399.283,387.749
				c0,0,6.215,2.571,9.666,6.546"/>
			<path style="fill:none;stroke:#263238;stroke-linecap:round;stroke-linejoin:round;stroke-miterlimit:10;" d="M390.99,391.961
				c0,0-4.206-0.83-10.078-0.711c-5.872,0.119-9.981,1.694-9.981,1.694"/>
			<path style="fill:none;stroke:#263238;stroke-linecap:round;stroke-linejoin:round;stroke-miterlimit:10;" d="M392.566,396.07
				c0,0,6.88,4.483,6.752,10.071"/>
		</g>
		<g>
			<path style="fill:#92E3A9;" d="M397.786,314.335c0,0-5.139,3.738-8.41,0c-3.27-3.738,1.402-11.213-3.27-14.016
				c-4.672-2.803-12.148,2.336-12.148,2.336s6.074,1.402,6.074,4.672c0,3.27-2.803,4.672-3.27,3.27
				c-0.467-1.402-3.738-8.41-8.41-5.139c-4.672,3.27-5.139,7.943-5.139,7.943s11.213-1.869,12.147,2.336
				c0.935,4.205-4.672-0.467-9.344-0.467c-4.672,0-8.877,0.934-8.41,3.738c0.467,2.803,0,7.475,0,7.475s3.738-3.738,8.877-3.738
				c5.139,0,5.139,3.27,0.467,3.27c-4.672,0-8.41,4.672-8.41,4.672s4.672,7.008,10.279,10.279c5.607,3.271,7.475,1.869,7.943-0.934
				c0.467-2.803-1.402-9.811,1.869-9.811c3.271,0-4.672,12.615-0.467,13.082c4.205,0.467,7.475-0.934,8.41-3.738
				c0.934-2.803,0.934-2.803,0.934-2.803s-1.869-7.008-1.401-9.811c0.467-2.803,1.401,0,2.336,3.271
				c0.934,3.27,1.869,11.213,3.271,10.746c1.402-0.467,5.606-6.541,6.541-8.877c0.934-2.336-6.541-8.877-6.541-10.279
				s5.606,0.935,6.541,2.336c0.934,1.402,1.869,3.271,1.869,3.271s3.271-2.336,2.803-8.877
				C402.458,311.999,397.786,314.335,397.786,314.335z"/>
			<path style="fill:none;stroke:#263238;stroke-linecap:round;stroke-linejoin:round;stroke-miterlimit:10;" d="M371.613,331.281
				c3.229-4.512,8.019-10.641,12.157-13.676"/>
			<path style="fill:none;stroke:#263238;stroke-linecap:round;stroke-linejoin:round;stroke-miterlimit:10;" d="M367.884,336.761
				c0,0,0.821-1.296,2.161-3.245"/>
			<path style="fill:none;stroke:#263238;stroke-linecap:round;stroke-linejoin:round;stroke-miterlimit:10;" d="M386.106,318.539
				c0,0,5.607,7.008,7.008,14.484"/>
			<path style="fill:none;stroke:#263238;stroke-linecap:round;stroke-linejoin:round;stroke-miterlimit:10;" d="M380.499,323.212
				c0,0,1.402-0.934,1.402,8.41"/>
			<path style="fill:none;stroke:#263238;stroke-linecap:round;stroke-linejoin:round;stroke-miterlimit:10;" d="M383.77,314.335
				c0,0,2.803-2.803,0.934-7.943"/>
			
				<line style="fill:none;stroke:#263238;stroke-linecap:round;stroke-linejoin:round;stroke-miterlimit:10;" x1="380.032" y1="319.007" x2="377.696" y2="315.269"/>
			<path style="fill:none;stroke:#263238;stroke-linecap:round;stroke-linejoin:round;stroke-miterlimit:10;" d="M375.827,323.212
				c0,0-7.008-4.672-11.213-4.672"/>
		</g>
		
			<rect x="408.853" y="419.01" style="fill:#263238;stroke:#263238;stroke-width:2;stroke-linecap:round;stroke-linejoin:round;stroke-miterlimit:10;" width="36.119" height="51.99"/>
	</g>
</g>
<g id="Floor">
	<g>
		<line style="fill:none;stroke:#263238;stroke-linecap:round;stroke-miterlimit:10;" x1="65" y1="471" x2="38" y2="471"/>
		<line style="fill:none;stroke:#263238;stroke-linecap:round;stroke-miterlimit:10;" x1="460" y1="471" x2="78" y2="471"/>
	</g>
</g>
<g id="Character">
	<g>
		<g>
			<path style="fill:#FFFFFF;stroke:#263238;stroke-linecap:round;stroke-miterlimit:10;" d="M304.1,197.707
				c0,0,1.565,5.365,2.012,10.058c0.447,4.694,0.223,10.282,0.447,11.176c0.224,0.894,11.623,6.035,11.623,6.035l-2.682,15.199
				c0,0-10.058-7.6-14.082-11.623c-4.023-4.023-5.811-6.258-7.823-8.047c-2.012-1.788-9.835-7.376-12.741-10.282
				c-2.906-2.906-4.47-8.27-1.788-9.611c2.682-1.341,13.635,0.671,14.529,1.341c0.894,0.671,4.247,0.223,4.247,0.223l4.247-4.023
				L304.1,197.707z"/>
			<polygon style="fill:#263238;stroke:#263238;stroke-linecap:round;stroke-miterlimit:10;" points="269.678,190.331 
				292.701,216.036 306.335,210.448 286.665,185.861 			"/>
			<path style="fill:#FFFFFF;stroke:#263238;stroke-linecap:round;stroke-miterlimit:10;" d="M302.312,201.284
				c-1.341,1.341-5.141,4.247-6.482,4.694c-1.341,0.447-4.47-1.341-2.906-2.906c1.565-1.565,7.6-8.494,7.6-8.494
				s1.341-1.788,2.682,0.223s1.118,5.812,1.118,5.812"/>
			<path style="fill:#FFFFFF;stroke:#263238;stroke-linecap:round;stroke-miterlimit:10;" d="M277.041,197.843
				c0,0-1.555,7.4-0.346,8.4c1.21,1,3.284,0,3.284-1.4c0-1.4,1.555-5.8,0.518-7.4C279.461,195.843,278.078,195.443,277.041,197.843z
				"/>
			<path style="fill:#FFFFFF;stroke:#263238;stroke-linecap:round;stroke-miterlimit:10;" d="M281.696,203.446
				c0,0-1.48,7.952-0.329,9.026c1.151,1.074,3.125,0,3.125-1.504c0-1.504,1.48-6.232,0.493-7.952
				C283.998,201.297,282.683,200.867,281.696,203.446z"/>
			<path style="fill:#FFFFFF;stroke:#263238;stroke-linecap:round;stroke-miterlimit:10;" d="M285.272,205.904
				c0,0-1.48,7.952-0.329,9.026c1.151,1.075,3.125,0,3.125-1.504c0-1.504,1.48-6.232,0.493-7.952
				C287.575,203.755,286.259,203.326,285.272,205.904z"/>
			<path style="fill:#FFFFFF;stroke:#263238;stroke-linecap:round;stroke-miterlimit:10;" d="M288.181,209.292
				c0,0-1.055,5.668-0.234,6.434c0.821,0.766,2.227,0,2.227-1.072s1.055-4.443,0.352-5.668
				C289.823,207.76,288.885,207.453,288.181,209.292z"/>
		</g>
		<polygon style="fill:#92E3A9;stroke:#263238;stroke-linecap:round;stroke-miterlimit:10;" points="332.487,226.765 
			316.393,223.412 311.476,247.105 327.346,251.352 		"/>
		<g>
			<path style="fill:#FFFFFF;stroke:#263238;stroke-linecap:round;stroke-miterlimit:10;" d="M393.175,457.184
				c0,0-0.298,10.871-0.298,12.36s-6.552,2.681-11.318,2.532c-4.765-0.149-12.509,0.149-17.275-0.596
				c-4.765-0.745-11.913-0.745-14.892-0.745s-4.17-4.914-1.042-7.446c3.127-2.532,11.02-2.978,15.636-4.765
				c4.616-1.787,6.85-6.701,6.85-6.701s6.552,0.149,12.211,1.34C388.707,454.354,393.175,457.184,393.175,457.184z"/>
			<path style="fill:#FFFFFF;stroke:#263238;stroke-linecap:round;stroke-miterlimit:10;" d="M392.877,469.544
				c0-0.252,0.009-0.776,0.023-1.466c-6.458,0.58-17.808,0.87-25.488,0.87c-7.785,0-17.554-0.993-20.873-1.357
				c0.17,1.713,1.248,3.144,2.854,3.144c2.978,0,10.126,0,14.892,0.745c4.765,0.745,12.509,0.447,17.275,0.596
				C386.325,472.224,392.877,471.033,392.877,469.544z"/>
		</g>
		<path style="fill:#FFFFFF;stroke:#263238;stroke-linecap:round;stroke-miterlimit:10;" d="M379.648,397c0,0,9.5,25,11.5,35.5
			s2,25.5,2,25.5s-6-0.5-9-2s-5.5-3-5.5-3L379.648,397z"/>
		<g>
			<path style="fill:#FFFFFF;stroke:#263238;stroke-linecap:round;stroke-miterlimit:10;" d="M351.148,452c0,0-6,5.5-12.5,10
				s-12.5,6.5-10.5,9c2,2.5,5,5,19,5s26.5-1.5,29.5-3.5s0.5-14.5,0.5-14.5L351.148,452z"/>
			<path style="fill:#FFFFFF;stroke:#263238;stroke-linecap:round;stroke-miterlimit:10;" d="M378.064,468.675
				c-2.499,0.747-5.866,1.611-9.311,2.06c-6.85,0.893-27.55,1.489-32.762-0.149c-3.237-1.017-4.921-2.436-5.734-3.365
				c-2.091,1.388-3.115,2.52-2.108,3.779c2,2.5,5,5,19,5s26.5-1.5,29.5-3.5C377.518,471.921,377.923,470.458,378.064,468.675z"/>
		</g>
		<path style="fill:#FFFFFF;stroke:#263238;stroke-linecap:round;stroke-miterlimit:10;" d="M327.148,256c0,0-4.5,64.5-2.5,88.5
			s12,49.5,17.5,61s7.5,32.5,8,34s-1,3.5-1,3.5s-1-1.5-1,2.5s1,9.5,1,9.5s9.5,5,16,8s13.284,2.523,13.284,2.523
			s4.216-10.023,5.716-18.523s-1.5-31-2.5-41.5s5.5-89,5.5-95s2-25.5-1.5-41s-27-16.5-39-20S326.648,250.5,327.148,256z"/>
		<g>
			<path style="fill:#263238;" d="M365.148,463c0.344,0.159,0.689,0.303,1.034,0.443c0.651-5.35,1.539-14.167,0.47-21.303
				c-1.441-9.594-3.877-31.928-3.877-54.78c0-22.664-5.293-53.643-9.826-73.284c-4.248-18.411,0.008-60.742,0.052-61.168
				l-4.975-0.508c-0.181,1.77-4.384,43.582,0.052,62.801c4.474,19.385,9.697,49.915,9.697,72.159
				c0,23.146,2.472,45.791,3.932,55.522c0.87,5.804,0.265,13.289-0.301,18.337C362.701,461.85,363.974,462.458,365.148,463z"/>
			<path style="fill:#263238;" d="M359.094,445.094l0.374-0.75l-0.152-0.823c-0.024-0.131-2.456-13.342-4.858-32.557
				c-0.775-6.2-1.571-15.677-2.414-25.71c-1.895-22.564-4.043-48.136-7.448-58.694c-4.698-14.566-4.276-52.023-4.272-52.399
				l-0.169-0.002c1.121-12.699,2.089-22.516,2.11-22.723l-4.977-0.492c-0.044,0.445-4.41,44.747-5.379,67.493
				c-0.523,12.297,2.923,34.65,5.963,54.373c0.636,4.124,1.262,8.192,1.837,12.065c-1.401-5.05-3.017-10.92-4.84-17.687
				c-7.209-26.758-3.531-103.759,0.488-109.73c-0.104,0.156-0.584,0.605-1.381,0.623l-0.115-4.998
				c-0.561,0.013-1.632,0.21-2.515,1.39c-5.403,7.223-8.578,87.018-1.306,114.016c2.485,9.225,4.59,16.793,6.281,22.873
				c0.146,0.524,0.287,1.032,0.427,1.537c1.97,5.07,3.861,9.385,5.4,12.603c2.985,6.241,4.937,15.275,6.18,22.476
				c-0.243-4.407-0.64-10.224-1.197-14.127c-0.044-0.306-0.093-0.623-0.148-0.948c0.045-0.24,0.093-0.465,0.136-0.711
				c0.997-5.732-1.461-21.68-4.307-40.145c-3.005-19.495-6.41-41.592-5.908-53.398c0.061-1.434,0.136-2.955,0.222-4.545
				c0.649,5.385,1.525,10.315,2.711,13.991c3.23,10.013,5.444,36.386,7.224,57.577c0.848,10.085,1.648,19.611,2.436,25.913
				c2.081,16.649,4.189,28.845,4.756,32.027c-0.998,2.069-3.497,7.498-4.422,11.745c0.888,0.464,2.584,1.346,4.668,2.409
				C354.71,454.819,357.381,448.522,359.094,445.094z"/>
			<path style="fill:#263238;" d="M378.243,465.533c0.801-5.152,2.589-18.135,2.589-31.319c0-12.5-1.094-31.751-2.059-48.735
				c-0.321-5.655-0.628-11.044-0.872-15.817c-0.348-6.771-0.993-14.359-1.677-22.393c-1.247-14.674-2.538-29.847-2.227-42.33
				c0.483-19.33,0.489-45.193,0.489-45.452h-5c0,0.259-0.006,26.059-0.487,45.327c-0.318,12.758,0.983,28.07,2.243,42.879
				c0.68,7.99,1.321,15.537,1.664,22.225c0.245,4.782,0.552,10.18,0.874,15.846c0.961,16.918,2.051,36.093,2.051,48.451
				c0,13.136-1.888,26.437-2.612,31.054C375.766,465.607,377.675,465.558,378.243,465.533z"/>
			<path style="fill:#263238;" d="M383.272,319.519c0-14.568,1.083-44.832,1.385-52.983c-0.333-0.745-0.715-1.453-1.149-2.121
				l-3.769-0.144c-0.015,0.381-1.467,38.313-1.467,55.248c0,16.046,3.349,60.223,3.854,66.786
				c0.581-10.88,1.513-24.636,2.419-37.461C383.842,337.303,383.272,325.97,383.272,319.519z"/>
			<path style="fill:#263238;" d="M373.512,440.559c0-7.945-1.027-18.435-2.114-29.541c-1.12-11.444-2.278-23.278-2.278-32.443
				c0-16.778-0.852-42.737-4.906-71.123c-3.334-23.341-1.227-48.093-0.626-54.108c-1.643-0.412-3.29-0.783-4.91-1.131
				c-0.517,4.95-2.95,31.188,0.587,55.947c4.013,28.095,4.855,53.8,4.855,70.416c0,9.409,1.171,21.366,2.303,32.93
				c1.074,10.981,2.09,21.354,2.09,29.055c0,10.58-1.236,18.35-2.239,22.923c1.65,0.662,3.292,1.118,4.811,1.427
				C372.179,460.052,373.512,451.841,373.512,440.559z"/>
		</g>
		<g>
			<path style="fill:#92E3A9;stroke:#263238;stroke-linecap:round;stroke-miterlimit:10;" d="M339.621,181.442
				c0,0-11.201,21.045-11.201,28.173c0,7.128,2.376,9.165,2.376,13.577c0,4.413-8.146,26.136-8.146,30.888
				c0,4.752,9.504,5.431,12.559,5.431s6.789,0,6.789,0s5.091,2.715,10.862,2.715c5.77,0,13.577,2.376,16.971,4.752
				c3.394,2.376,17.99,9.844,17.99,9.844s3.394-2.716,2.037-11.88c-1.358-9.165-5.431-15.275-4.752-21.384
				c0.679-6.11,1.697-37.338,1.697-50.575c0-13.238-6.789-24.439-12.898-28.852c-6.11-4.413-19.008,1.358-23.081,6.11
				C346.749,174.993,339.621,181.442,339.621,181.442z"/>
			
				<line style="fill:none;stroke:#263238;stroke-linecap:round;stroke-miterlimit:10;" x1="333.75" y1="249.889" x2="341.997" y2="259.512"/>
			
				<line style="fill:none;stroke:#263238;stroke-linecap:round;stroke-miterlimit:10;" x1="329.778" y1="245.255" x2="331.977" y2="247.821"/>
		</g>
		<g>
			<path style="fill:none;stroke:#263238;stroke-width:2;stroke-linecap:round;stroke-miterlimit:10;" d="M359.148,173
				c0,0-11,20-11,49s-3.5,68-3.5,68l42-4.5c0,0,4.047-58.328-3.5-89C375.601,165.828,364.148,167,359.148,173z"/>
			<path style="fill:#FFFFFF;stroke:#263238;stroke-linecap:round;stroke-miterlimit:10;" d="M346.148,284.5c0,0-3.5,30,0.5,34
				s34.5-1,40-2s4.833-9,4.333-14s-3.161-25.677-3.161-25.677L346.148,284.5z"/>
			<path style="fill:#263238;stroke:#263238;stroke-linecap:round;stroke-miterlimit:10;" d="M346.148,284.5c0,0,0,17,9.5,19
				s28,0,30.5-6s1.672-20.677,1.672-20.677L346.148,284.5z"/>
		</g>
		<g>
			<path style="fill:#263238;stroke:#263238;stroke-linecap:round;stroke-miterlimit:10;" d="M361.496,86.301
				c0,0-16.315-0.979-26.757,5.873c-10.442,6.853-2.611,15.989-0.653,17.947c1.958,1.958,5.547,6.526,13.052,6.526
				c7.505,0,23.168-3.263,25.452-13.705C374.875,92.501,361.496,86.301,361.496,86.301z"/>
			<g>
				<path style="fill:#FFFFFF;stroke:#263238;stroke-linecap:round;stroke-miterlimit:10;" d="M353.338,101.964
					c0,0-12.726,4.568-15.663,9.137c-2.937,4.568-2.937,10.442-3.916,12.726c-0.979,2.284-8.158,5.221-8.158,6.852
					c0,1.632,5.547,6.2,5.547,6.2s0.335,19.393,2.284,19.578c5.715,0.543,10.768-1.958,10.768-1.958l6.852,19.252
					c0,0,10.116-22.842,13.379-32.631c3.263-9.789,3.916-31.325,0.979-34.915S353.338,101.964,353.338,101.964z"/>
				<path style="fill:#263238;" d="M339.924,123.457c-0.401,1.571-1.222,2.719-1.833,2.563c-0.611-0.156-0.781-1.557-0.38-3.128
					c0.401-1.572,1.222-2.719,1.833-2.563C340.156,120.485,340.326,121.885,339.924,123.457z"/>
				<path style="fill:none;stroke:#263238;stroke-linecap:round;stroke-miterlimit:10;" d="M335.392,138.837
					c0,0,6.526,2.61,10.115-2.284"/>
				<path style="fill:none;stroke:#263238;stroke-linecap:round;stroke-miterlimit:10;" d="M338.328,116.974
					c0,0,1.305-4.242,4.568,0"/>
				
					<line style="fill:none;stroke:#263238;stroke-linecap:round;stroke-miterlimit:10;" x1="337.349" y1="128.069" x2="341.918" y2="127.09"/>
			</g>
			<g>
				<path style="fill:#263238;stroke:#263238;stroke-linecap:round;stroke-miterlimit:10;" d="M347.139,100.006
					c0,0,3.263-1.632,5.874,4.568c2.611,6.2,3.916,26.757-1.632,46.988c-5.547,20.231-16.315,36.22-15.01,44.704
					s9.463,15.663,15.01,2.284c5.547-13.379,7.179-28.062,15.336-31.325c8.158-3.263,11.342,5.714,14.931,14.525
					c3.589,8.81,3.668,34.421,2.689,47.148c-0.979,12.726,0.653,19.905,6.526,18.273c5.874-1.632,13.379-3.263,13.052-14.031
					c-0.326-10.768-5.547-14.684-3.916-18.6c1.632-3.916,13.052-13.379,10.442-25.452c-2.61-12.073-13.705-15.663-17.294-29.694
					c-3.589-14.031,5.874-32.631,2.937-46.009c-2.937-13.379-14.031-24.147-23.82-27.736c-9.789-3.589-25.126,2.937-27.41,8.484"/>
				<g>
					<path style="fill:none;stroke:#7A7A7A;stroke-linecap:round;stroke-miterlimit:10;" d="M345.019,173.567
						c-3.338,5.471-4.085,7.922-4.085,7.922"/>
					<path style="fill:none;stroke:#7A7A7A;stroke-linecap:round;stroke-miterlimit:10;" d="M366.765,99.378
						c2.694,2.88,4.064,8.995,3.464,22.802c-0.961,22.091-8.404,27.854-18.009,40.82c-1.751,2.365-3.24,4.482-4.502,6.363"/>
					<path style="fill:none;stroke:#7A7A7A;stroke-linecap:round;stroke-miterlimit:10;" d="M349.818,99.368
						c0,0,4.322-3.602,10.805-2.641c1.338,0.198,2.573,0.458,3.683,0.939"/>
					<path style="fill:none;stroke:#7A7A7A;stroke-linecap:round;stroke-miterlimit:10;" d="M382.944,129.383
						c0.602-1.912,1.18-3.768,1.692-5.523c3.362-11.526,0.48-32.416-9.125-32.896c-9.605-0.48-27.134,7.204-27.134,7.204
						s-2.161,2.401-2.161,3.602s1.681,1.921,1.681,1.921"/>
					<path style="fill:none;stroke:#7A7A7A;stroke-linecap:round;stroke-miterlimit:10;" d="M393.134,178.295
						c-5.621-7.226-12.59-14.066-14.741-19.137c-2.236-5.271-0.223-14.047,2.365-22.725"/>
					<path style="fill:none;stroke:#7A7A7A;stroke-linecap:round;stroke-miterlimit:10;" d="M397.354,221.587
						c-2.695-2.577-5.608-3.957-5.274-6.961c0.48-4.322,11.526-12.726,8.164-24.012c-0.887-2.978-2.594-6.023-4.687-9.038"/>
					<path style="fill:none;stroke:#7A7A7A;stroke-linecap:round;stroke-miterlimit:10;" d="M400.484,225.911
						c-0.292-0.664-0.628-1.266-0.994-1.818"/>
					<path style="fill:none;stroke:#7A7A7A;stroke-linecap:round;stroke-miterlimit:10;" d="M335.014,106.189
						c0.473,0.863,1.118,1.583,1.838,2.063"/>
					<path style="fill:none;stroke:#7A7A7A;stroke-linecap:round;stroke-miterlimit:10;" d="M349.818,97.688
						c0,0-6.003-3.842-11.766-0.48c-2.161,1.261-3.275,2.859-3.672,4.466"/>
				</g>
			</g>
		</g>
		<g>
			<path style="fill:#263238;" d="M386.57,437.63c0,7.944-0.473,14.677-0.877,18.983c1.58,0.516,3.449,0.864,4.925,1.082
				c0.427-4.368,0.952-11.478,0.952-20.064c0-0.903-0.006-1.829-0.017-2.771c-0.125-0.804-0.259-1.594-0.405-2.359
				c-0.861-4.521-3.113-11.73-5.398-18.475C386.142,420.866,386.57,430.06,386.57,437.63z"/>
			<path style="fill:#263238;" d="M378.648,453c0,0,0.419,0.251,1.112,0.647c0.582-5.697,1.072-12.536,1.072-19.433
				c0-8.978-0.565-21.439-1.24-34.04L378.648,453z"/>
		</g>
		<g>
			<path style="fill:#FFFFFF;stroke:#263238;stroke-linecap:round;stroke-miterlimit:10;" d="M335.888,278.859
				c0,0-9.844,17.65-12.22,18.669c-2.376,1.018-13.917,4.752-13.917,4.752s-9.504,8.486-10.522,11.201
				c-1.018,2.715,1.697,2.376,1.697,2.376s-1.018,4.073,0.679,4.073l0,0c1.068,0,2.074-0.503,2.715-1.358l0,0
				c0,0,0.339,3.055,1.697,2.037c1.358-1.018,3.055-3.394,3.055-3.394s-0.679,3.394,2.036,1.697c2.715-1.697,6.11-7.807,6.11-7.807
				s6.789-2.376,8.146-3.055s5.431-7.807,5.431-7.807l20.026-15.614L335.888,278.859z"/>
			<path style="fill:none;stroke:#263238;stroke-linecap:round;stroke-miterlimit:10;" d="M300.926,315.857
				c0,0,5.905-8.567,7.302-10.08"/>
			<path style="fill:none;stroke:#263238;stroke-linecap:round;stroke-miterlimit:10;" d="M304.32,318.573
				c0,0,4.838-9.538,6.699-11.632"/>
			<path style="fill:none;stroke:#263238;stroke-linecap:round;stroke-miterlimit:10;" d="M309.073,317.215
				c0,0,3.693-7.598,5.438-9.576"/>
		</g>
		<path style="fill:#92E3A9;stroke:#263238;stroke-linecap:round;stroke-miterlimit:10;" d="M357.272,194.001l1.018,39.374
			l-22.402,45.484l15.822,15.855c0,0,25.117-36.044,27.493-40.457c2.376-4.413,5.224-11.378,5.224-18.846
			s-0.339-42.089-0.679-46.842c-0.34-4.752-2.715-19.687-8.146-22.742s-17.651,3.055-19.008,14.935"/>
	</g>
</g>
<g id="Device">
	<g>
		<path style="fill:#263238;stroke:#263238;stroke-linecap:round;stroke-miterlimit:10;" d="M243.5,442h-184
			c-9.665,0-17.5-7.835-17.5-17.5v-366C42,48.835,49.835,41,59.5,41h184c9.665,0,17.5,7.835,17.5,17.5v366
			C261,434.165,253.165,442,243.5,442z"/>
		
			<rect x="57.264" y="79.373" style="fill:#E5E5E5;stroke:#263238;stroke-linecap:round;stroke-miterlimit:10;" width="187.93" height="330.741"/>
		
			<rect x="57.264" y="79.373" style="fill:#263238;stroke:#263238;stroke-linecap:round;stroke-miterlimit:10;" width="187.93" height="18.829"/>
		
			<rect x="57.264" y="93.291" style="fill:#92E3A9;stroke:#263238;stroke-linecap:round;stroke-miterlimit:10;" width="187.93" height="25.866"/>
		<g>
			
				<line style="fill:none;stroke:#263238;stroke-width:2;stroke-linecap:round;stroke-miterlimit:10;" x1="67.544" y1="102.659" x2="77.605" y2="102.659"/>
			
				<line style="fill:none;stroke:#263238;stroke-width:2;stroke-linecap:round;stroke-miterlimit:10;" x1="67.544" y1="107.521" x2="77.605" y2="107.521"/>
			
				<line style="fill:none;stroke:#263238;stroke-width:2;stroke-linecap:round;stroke-miterlimit:10;" x1="67.544" y1="112.382" x2="77.605" y2="112.382"/>
		</g>
		<g>
			
				<line style="fill:none;stroke:#263238;stroke-width:2;stroke-linecap:round;stroke-miterlimit:10;" x1="224.795" y1="102.659" x2="234.105" y2="102.659"/>
			
				<line style="fill:none;stroke:#263238;stroke-width:2;stroke-linecap:round;stroke-miterlimit:10;" x1="225.974" y1="107.521" x2="234.105" y2="107.521"/>
			
				<line style="fill:none;stroke:#263238;stroke-width:2;stroke-linecap:round;stroke-miterlimit:10;" x1="230.054" y1="112.382" x2="234.105" y2="112.382"/>
		</g>
		<rect x="67.075" y="136.121" style="fill:#FFFFFF;" width="169.64" height="146.212"/>
		<rect x="67.075" y="293.454" style="fill:#FFFFFF;" width="169.64" height="114.879"/>
		<polyline style="fill:none;stroke:#CCCCCC;stroke-linecap:round;stroke-miterlimit:10;" points="71.124,408.333 71.124,332.333 
			232.667,332.333 232.667,408.333 		"/>
		<rect x="73.333" y="243" style="fill:#E8E8E8;" width="156.667" height="30.667"/>
		<rect x="200" y="244.333" style="fill:#D4D4D4;" width="30" height="29.333"/>
		<g>
			<rect x="206.483" y="255.266" style="fill:#263238;" width="3.963" height="7.582"/>
			<path style="fill:#263238;" d="M221.447,255.455h-3.696c0,0,0-2.181,0-2.852s-0.37-2.684-1.478-2.852
				c-1.109-0.168-0.924,0.503-0.924,1.51c0,1.007-1.109,3.523-1.109,3.523l-2.587,0.294v7.81c2.202,0.146,8.628,0.533,9.24,0.117
				c0.739-0.503,0.554-5.369,0.554-5.369C222.371,256.462,221.447,255.455,221.447,255.455z"/>
		</g>
		<g>
			<g>
				<path style="fill:#FFFFFF;" d="M68.879,85.126c0,1.429-1.605,1.943-1.611,3.033v0.074h1.557v0.481h-2.078v-0.406
					c0-1.53,1.605-1.828,1.605-3.162c0-0.487-0.163-0.745-0.555-0.745c-0.386,0-0.555,0.277-0.555,0.697v0.42h-0.494v-0.386
					c0-0.725,0.332-1.205,1.063-1.205C68.547,83.928,68.879,84.402,68.879,85.126z"/>
				<path style="fill:#FFFFFF;" d="M71.473,85.12v0.122c0,0.488-0.196,0.833-0.575,0.975c0.399,0.149,0.575,0.508,0.575,0.982v0.366
					c0,0.724-0.338,1.198-1.07,1.198c-0.724,0-1.063-0.474-1.063-1.198v-0.325h0.494v0.359c0,0.427,0.176,0.684,0.555,0.684
					c0.386,0,0.555-0.251,0.555-0.731v-0.366c0-0.467-0.196-0.691-0.596-0.704h-0.284v-0.474h0.311
					c0.352-0.014,0.569-0.237,0.569-0.65V85.14c0-0.487-0.169-0.738-0.555-0.738c-0.379,0-0.555,0.264-0.555,0.691v0.244H69.34
					V85.12c0-0.724,0.338-1.192,1.063-1.192C71.134,83.928,71.473,84.395,71.473,85.12z"/>
				<path style="fill:#FFFFFF;" d="M72.496,85.479v0.657h-0.508v-0.657H72.496z M72.496,88.058v0.657h-0.508v-0.657H72.496z"/>
				<path style="fill:#FFFFFF;" d="M73.566,85.905c0.149-0.257,0.386-0.393,0.704-0.393c0.609,0,0.88,0.447,0.88,1.124v0.928
					c0,0.724-0.345,1.198-1.069,1.198c-0.725,0-1.063-0.474-1.063-1.198v-0.318h0.494v0.352c0,0.427,0.176,0.684,0.555,0.684
					c0.379,0,0.555-0.257,0.555-0.684v-0.921c0-0.426-0.176-0.684-0.555-0.684c-0.291,0-0.487,0.163-0.535,0.508v0.108h-0.494
					l0.129-2.634h1.868v0.474h-1.395L73.566,85.905z"/>
				<path style="fill:#FFFFFF;" d="M77.785,85.113v0.088h-0.494v-0.122c0-0.427-0.176-0.677-0.562-0.677
					c-0.4,0-0.576,0.257-0.576,0.765v1.063c0.129-0.325,0.386-0.508,0.765-0.508c0.609,0,0.881,0.44,0.881,1.124v0.718
					c0,0.724-0.359,1.198-1.084,1.198c-0.731,0-1.09-0.474-1.09-1.198v-2.417c0-0.751,0.339-1.219,1.09-1.219
					C77.447,83.928,77.785,84.389,77.785,85.113z M76.154,86.887v0.711c0,0.427,0.176,0.684,0.562,0.684
					c0.379,0,0.562-0.257,0.562-0.684v-0.711c0-0.427-0.183-0.684-0.562-0.684C76.329,86.203,76.154,86.46,76.154,86.887z"/>
			</g>
			<g>
				<rect x="194.138" y="84.304" style="fill:#FFFFFF;" width="1.931" height="4.827"/>
				<rect x="196.712" y="83.337" style="fill:#FFFFFF;" width="1.931" height="5.794"/>
				<rect x="199.287" y="82.651" style="fill:#FFFFFF;" width="1.931" height="6.481"/>
				<rect x="201.861" y="81.456" style="fill:#FFFFFF;" width="1.931" height="7.675"/>
				<g>
					<g>
						<path style="fill:#FFFFFF;" d="M234.687,88.999h-11.585v-7.08h11.585V88.999z M223.745,88.355h10.298v-5.793h-10.298V88.355z"
							/>
					</g>
					<g>
						<rect x="224.71" y="83.263" style="fill:#FFFFFF;" width="6.114" height="4.392"/>
					</g>
					<g>
						<rect x="234.284" y="84.625" style="fill:#FFFFFF;" width="1.457" height="1.668"/>
					</g>
				</g>
				<g>
					<path style="fill:#FFFFFF;" d="M215.854,87.459c-0.075,0-0.152-0.019-0.221-0.061c-2.358-1.401-3.916-0.1-3.981-0.046
						c-0.18,0.156-0.453,0.136-0.609-0.043c-0.156-0.18-0.139-0.45,0.04-0.608c0.084-0.074,2.076-1.781,4.993-0.047
						c0.205,0.122,0.273,0.388,0.15,0.593C216.144,87.383,216,87.459,215.854,87.459z"/>
				</g>
				<g>
					<path style="fill:#FFFFFF;" d="M216.726,86.004c-0.075,0-0.152-0.019-0.221-0.061c-3.409-2.027-5.7-0.066-5.723-0.047
						c-0.179,0.159-0.452,0.14-0.61-0.039c-0.158-0.179-0.141-0.453,0.039-0.61c0.028-0.025,2.791-2.392,6.738-0.047
						c0.205,0.122,0.273,0.388,0.15,0.593C217.016,85.929,216.873,86.004,216.726,86.004z"/>
				</g>
				<g>
					<path style="fill:#FFFFFF;" d="M217.517,84.32c-0.075,0-0.152-0.019-0.221-0.061c-4.317-2.567-7.188-0.15-7.308-0.046
						c-0.18,0.156-0.454,0.137-0.61-0.042c-0.157-0.179-0.139-0.451,0.04-0.609c0.034-0.03,3.444-2.947,8.321-0.047
						c0.205,0.122,0.273,0.388,0.15,0.593C217.808,84.245,217.664,84.32,217.517,84.32z"/>
				</g>
				<g>
					<circle style="fill:#FFFFFF;" cx="213.466" cy="88.184" r="1.085"/>
				</g>
			</g>
		</g>
		<path style="fill:#263238;" d="M227.532,111.007c-0.998-0.599-4.789-1.397-4.789-1.397l-0.309-1.234
			c0.757-0.74,1.254-1.964,1.254-3.355c0-2.261-1.309-4.095-2.925-4.095c-1.615,0-2.925,1.833-2.925,4.095
			c0,1.575,0.642,2.926,1.573,3.611l-0.244,0.978c0,0-3.791,0.798-4.789,1.397c-0.998,0.599-0.798,3.193-0.798,3.193h6.768h0.016
			h7.965C228.33,114.199,228.529,111.605,227.532,111.007z"/>
		<line style="fill:none;stroke:#CCCCCC;stroke-linecap:round;stroke-miterlimit:10;" x1="66.667" y1="149" x2="236.667" y2="149"/>
		
			<line style="fill:none;stroke:#263238;stroke-linecap:round;stroke-miterlimit:10;" x1="73.333" y1="187.667" x2="192" y2="187.667"/>
		<g>
			<circle style="fill:#92E3A9;" cx="86" cy="167" r="12.667"/>
			<path style="fill:#263238;" d="M86,179.667c6.996,0,12.667-5.671,12.667-12.667c0-1.69-0.337-3.299-0.938-4.773
				c-2.366,3.193-5.438,6.571-9.138,7.14c-6.749,1.038-4.672-3.634-7.787-3.115c-1.472,0.245-4.104,2.927-6.471,5.686
				C76.258,176.48,80.757,179.667,86,179.667z"/>
		</g>
		
			<line style="fill:none;stroke:#263238;stroke-width:2;stroke-linecap:round;stroke-miterlimit:10;" x1="106" y1="161.667" x2="156" y2="161.667"/>
		<line style="fill:none;stroke:#CCCCCC;stroke-linecap:round;stroke-miterlimit:10;" x1="76.667" y1="143" x2="126.667" y2="143"/>
		
			<line style="fill:none;stroke:#263238;stroke-linecap:round;stroke-miterlimit:10;" x1="106" y1="170.333" x2="130" y2="170.333"/>
		
			<ellipse transform="matrix(0.3827 -0.9239 0.9239 0.3827 -269.9607 295.3088)" style="fill:#263238;" cx="86" cy="349.667" rx="12.667" ry="12.667"/>
		<circle style="fill:#92E3A9;" cx="86" cy="349.667" r="6"/>
		
			<line style="fill:none;stroke:#263238;stroke-width:2;stroke-linecap:round;stroke-miterlimit:10;" x1="106" y1="344.333" x2="156" y2="344.333"/>
		<line style="fill:none;stroke:#263238;stroke-linecap:round;stroke-miterlimit:10;" x1="106" y1="353" x2="130" y2="353"/>
		
			<line style="fill:none;stroke:#263238;stroke-width:2;stroke-linecap:round;stroke-miterlimit:10;" x1="81.333" y1="251.667" x2="131.333" y2="251.667"/>
		
			<line style="fill:none;stroke:#263238;stroke-linecap:round;stroke-miterlimit:10;" x1="81.333" y1="260.333" x2="105.333" y2="260.333"/>
		<line style="fill:none;stroke:#263238;stroke-linecap:round;stroke-miterlimit:10;" x1="81.333" y1="269" x2="154" y2="269"/>
		<line style="fill:none;stroke:#263238;stroke-linecap:round;stroke-miterlimit:10;" x1="81.333" y1="371" x2="209.333" y2="371"/>
		
			<line style="fill:none;stroke:#263238;stroke-linecap:round;stroke-miterlimit:10;" x1="81.333" y1="381.667" x2="148.667" y2="381.667"/>
		
			<line style="fill:none;stroke:#263238;stroke-linecap:round;stroke-miterlimit:10;" x1="81.333" y1="305.667" x2="180" y2="305.667"/>
		<line style="fill:none;stroke:#263238;stroke-linecap:round;stroke-miterlimit:10;" x1="81.333" y1="315" x2="139.333" y2="315"/>
		<rect x="73.33" y="195.67" style="fill:#FFFFFF;" width="156.67" height="48.66"/>
		<polygon style="fill:#92E3A9;" points="230,195.67 230,222.19 198,202.33 161.33,227.67 124.67,211 73.33,244.33 73.33,195.67 		
			"/>
		<path style="fill:#FFFFFF;" d="M98,211.667c0,3.682-2.985,6.667-6.667,6.667s-6.667-2.985-6.667-6.667S87.651,205,91.333,205
			S98,207.985,98,211.667z"/>
		
			<line style="fill:none;stroke:#263238;stroke-linecap:round;stroke-miterlimit:10;" x1="200.667" y1="251" x2="200.667" y2="268.333"/>
		<polyline style="fill:none;stroke:#263238;stroke-linecap:round;stroke-miterlimit:10;" points="221.552,140.456 224.801,142.835 
			228.115,140.456 		"/>
		<polyline style="fill:none;stroke:#263238;stroke-linecap:round;stroke-miterlimit:10;" points="221.552,343 224.801,345.379 
			228.115,343 		"/>
		<path style="fill:#595959;" d="M166,62h-29c-1.381,0-2.5-1.119-2.5-2.5l0,0c0-1.381,1.119-2.5,2.5-2.5h29
			c1.381,0,2.5,1.119,2.5,2.5l0,0C168.5,60.881,167.381,62,166,62z"/>
		<circle style="fill:#595959;" cx="151.5" cy="424" r="10"/>
	</g>
</g>
</svg>
